<svg xmlns="http://www.w3.org/2000/svg" viewBox="0 0 1200 800">
  <!-- Background -->
  <rect width="1200" height="800" fill="#f8f9fa" />
  
  <!-- Title -->
  <text x="600" y="50" font-family="Arial" font-size="28" text-anchor="middle" font-weight="bold">GRE/IPIP Tunnel Architecture</text>
  
  <!-- Physical Network (Bottom Layer) -->
  <rect x="100" y="700" width="1000" height="60" rx="10" fill="#d1e7dd" stroke="#0f5132" stroke-width="2" />
  <text x="600" y="740" font-family="Arial" font-size="18" text-anchor="middle" font-weight="bold">Physical Network (10.0.0.0/24)</text>
  
  <!-- Nodes -->
  <!-- Benign Node -->
  <rect x="150" y="390" width="180" height="200" rx="10" fill="#cfe2ff" stroke="#084298" stroke-width="2" />
  <text x="240" y="420" font-family="Arial" font-size="18" text-anchor="middle" font-weight="bold">Tgen-0</text>
  <text x="240" y="445" font-family="Arial" font-size="16" text-anchor="middle">Physical IP: 10.1.3.71</text>
  
  <rect x="160" y="470" width="160" height="35" rx="5" fill="#e2e3e5" stroke="#41464b" stroke-width="1" />
  <text x="240" y="493" font-family="Arial" font-size="14" text-anchor="middle">gre-moat: 192.168.110.1</text>
  
  <rect x="160" y="520" width="160" height="35" rx="5" fill="#d1e7dd" stroke="#0f5132" stroke-width="1" />
  <text x="240" y="543" font-family="Arial" font-size="14" text-anchor="middle">ipip-tgen-0: 10.200.77.1</text>
  
  <!-- Attacker Node -->
  <rect x="150" y="150" width="180" height="200" rx="10" fill="#f8d7da" stroke="#842029" stroke-width="2" />
  <text x="240" y="180" font-family="Arial" font-size="18" text-anchor="middle" font-weight="bold">Tgen-1</text>
  <text x="240" y="205" font-family="Arial" font-size="16" text-anchor="middle">Physical IP: 10.1.2.86</text>
  
  <rect x="160" y="230" width="160" height="35" rx="5" fill="#e2e3e5" stroke="#41464b" stroke-width="1" />
  <text x="240" y="253" font-family="Arial" font-size="14" text-anchor="middle">gre-moat: 192.168.114.1</text>
  
  <rect x="160" y="280" width="160" height="35" rx="5" fill="#f8d7da" stroke="#842029" stroke-width="1" />
  <text x="240" y="303" font-family="Arial" font-size="14" text-anchor="middle">ipip-tgen-1: 10.200.77.2</text>
  
  <!-- Moat Node -->
  <rect x="500" y="300" width="200" height="270" rx="10" fill="#fff3cd" stroke="#664d03" stroke-width="2" />
  <text x="600" y="330" font-family="Arial" font-size="18" text-anchor="middle" font-weight="bold">Moat</text>
  <text x="600" y="355" font-family="Arial" font-size="16" text-anchor="middle">Physical IP: 10.1.3.141</text>
  
  <rect x="515" y="380" width="170" height="35" rx="5" fill="#e2e3e5" stroke="#41464b" stroke-width="1" />
  <text x="600" y="403" font-family="Arial" font-size="14" text-anchor="middle">gre-tgen-0: 192.168.110.2</text>
  
  <rect x="515" y="425" width="170" height="35" rx="5" fill="#e2e3e5" stroke="#41464b" stroke-width="1" />
  <text x="600" y="448" font-family="Arial" font-size="14" text-anchor="middle">gre-tgen-1: 192.168.114.2</text>
  
  <rect x="515" y="470" width="170" height="35" rx="5" fill="#e2e3e5" stroke="#41464b" stroke-width="1" />
  <text x="600" y="493" font-family="Arial" font-size="14" text-anchor="middle">gre-king: 192.168.101.1</text>
  
  <rect x="515" y="515" width="170" height="35" rx="5" fill="#d1e7dd" stroke="#0f5132" stroke-width="1" />
  <text x="600" y="538" font-family="Arial" font-size="14" text-anchor="middle">ipip-to-king</text>
  
  <!-- King Node -->
  <rect x="870" y="390" width="180" height="200" rx="10" fill="#d0d4ff" stroke="#070d59" stroke-width="2" />
  <text x="960" y="420" font-family="Arial" font-size="18" text-anchor="middle" font-weight="bold">King</text>
  <text x="960" y="445" font-family="Arial" font-size="16" text-anchor="middle">Physical IP: 10.1.3.23</text>
  
  <rect x="880" y="470" width="160" height="35" rx="5" fill="#e2e3e5" stroke="#41464b" stroke-width="1" />
  <text x="960" y="493" font-family="Arial" font-size="14" text-anchor="middle">gre-moat: 192.168.101.2</text>
  
  <rect x="880" y="520" width="160" height="35" rx="5" fill="#d0d4ff" stroke="#070d59" stroke-width="1" />
  <text x="960" y="543" font-family="Arial" font-size="14" text-anchor="middle">ipip-king: 10.0.0.1</text>
  
  <!-- Overlay Network (Top) -->
  <rect x="100" y="80" width="1000" height="40" rx="10" fill="#ffd8a8" stroke="#ff8000" stroke-width="2" />
  <text x="600" y="105" font-family="Arial" font-size="16" text-anchor="middle" font-weight="bold">Overlay Network (10.0.0.0/8)</text>

  <!-- GRE Tunnel Connections -->
  <!-- Benign to Moat GRE -->
  <path d="M 320 485 L 520 400" stroke="#084298" stroke-width="3" stroke-dasharray="5,3" fill="none" />
  <text x="420" y="435" font-family="Arial" font-size="14" text-anchor="middle" fill="#084298">GRE Tunnel (Key: 20000)</text>
  
  <!-- Attacker to Moat GRE -->
  <path d="M 320 245 L 515 430" stroke="#842029" stroke-width="3" stroke-dasharray="5,3" fill="none" />
  <text x="420" y="335" font-family="Arial" font-size="14" text-anchor="middle" fill="#842029">GRE Tunnel (Key: 20001)</text>
  
  <!-- Moat to King GRE -->
  <path d="M 685 485 L 885 485" stroke="#664d03" stroke-width="3" stroke-dasharray="5,3" fill="none" />
  <text x="785" y="465" font-family="Arial" font-size="14" text-anchor="middle" fill="#664d03">GRE Tunnel (Key: 10001)</text>
  
  <!-- IPIP Logical Connections -->
  <!-- Benign to King IPIP (through GRE) -->
  <path d="M 240 520 C 240 140 960 140 960 520" stroke="#0f5132" stroke-width="2" stroke-dasharray="10,4" fill="none" />
  <text x="600" y="160" font-family="Arial" font-size="14" text-anchor="middle" fill="#0f5132">IPIP Overlay (10.200.77.1 → 10.0.0.1)</text>
  
  <!-- Attacker to King IPIP (through GRE) -->
  <path d="M 240 280 C 260 180 940 180 960 520" stroke="#842029" stroke-width="2" stroke-dasharray="10,4" fill="none" />
  <text x="600" y="200" font-family="Arial" font-size="14" text-anchor="middle" fill="#842029">IPIP Overlay (10.200.77.2 → 10.0.0.1)</text>
  
  <!-- Physical Connections to Network -->
  <line x1="240" y1="590" x2="240" y2="700" stroke="#333" stroke-width="1.5" />
  <line x1="240" y1="350" x2="240" y2="700" stroke="#333" stroke-width="1.5" />
  <line x1="600" y1="510" x2="600" y2="700" stroke="#333" stroke-width="1.5" />
  <line x1="960" y1="590" x2="960" y2="700" stroke="#333" stroke-width="1.5" />
  
  <!-- Legend -->
  <rect x="900" y="150" width="240" height="170" rx="5" fill="rgba(255,255,255,0.9)" stroke="#333" stroke-width="1" />
  <text x="1020" y="175" font-family="Arial" font-size="16" text-anchor="middle" font-weight="bold">Legend</text>

  <!-- Physical Connection -->
  <line x1="920" y1="200" x2="960" y2="200" stroke="#333" stroke-width="1.5" />
  <text x="980" y="205" font-family="Arial" font-size="14" text-anchor="start">Physical Connection</text>

  <!-- GRE Tunnel -->
  <line x1="920" y1="230" x2="960" y2="230" stroke="#333" stroke-width="3" stroke-dasharray="5,3" />
  <text x="980" y="235" font-family="Arial" font-size="14" text-anchor="start">GRE Tunnel</text>

  <!-- IPIP Tunnel -->
  <line x1="920" y1="260" x2="960" y2="260" stroke="#333" stroke-width="2" stroke-dasharray="10,4" />
  <text x="980" y="265" font-family="Arial" font-size="14" text-anchor="start">IPIP Tunnel</text>

  <!-- Overlay IPs -->
  <rect x="920" y="285" width="18" height="18" fill="#d1e7dd" stroke="#0f5132" stroke-width="1" />
  <text x="960" y="298" font-family="Arial" font-size="14" text-anchor="start">Overlay IPs (10.200.77.x)</text>

  
</svg>
