<svg xmlns="http://www.w3.org/2000/svg" viewBox="0 0 1200 800">
  <!-- Background -->
  <rect width="1200" height="800" fill="#f8f9fa" />
  
  <!-- Title -->
  <text x="600" y="50" font-family="Arial" font-size="28" text-anchor="middle" font-weight="bold">GRE/IPIP Tunnel Architecture</text>
  
  <!-- Physical Network (Bottom Layer) -->
  <rect x="100" y="700" width="1000" height="60" rx="10" fill="#d1e7dd" stroke="#0f5132" stroke-width="2" />
  <text x="600" y="740" font-family="Arial" font-size="18" text-anchor="middle" font-weight="bold">Physical Network (10.0.0.0/24)</text>
  
  <!-- Nodes -->
  <!-- Benign Node -->
  <rect x="150" y="390" width="180" height="200" rx="10" fill="#cfe2ff" stroke="#084298" stroke-width="2" />
  <text x="240" y="420" font-family="Arial" font-size="18" text-anchor="middle" font-weight="bold">Benign Node</text>
  <text x="240" y="445" font-family="Arial" font-size="16" text-anchor="middle">Physical IP: 10.0.0.4</text>
  
  <rect x="170" y="470" width="140" height="35" rx="5" fill="#e2e3e5" stroke="#41464b" stroke-width="1" />
  <text x="240" y="493" font-family="Arial" font-size="14" text-anchor="middle">gre-moat: 192.168.100.1</text>
  
  <rect x="170" y="520" width="140" height="35" rx="5" fill="#d1e7dd" stroke="#0f5132" stroke-width="1" />
  <text x="240" y="543" font-family="Arial" font-size="14" text-anchor="middle">ipip-benign: 10.200.77.102</text>
  
  <!-- Attacker Node -->
  <rect x="150" y="150" width="180" height="200" rx="10" fill="#f8d7da" stroke="#842029" stroke-width="2" />
  <text x="240" y="180" font-family="Arial" font-size="18" text-anchor="middle" font-weight="bold">Attacker Node</text>
  <text x="240" y="205" font-family="Arial" font-size="16" text-anchor="middle">Physical IP: 10.0.0.2</text>
  
  <rect x="170" y="230" width="140" height="35" rx="5" fill="#e2e3e5" stroke="#41464b" stroke-width="1" />
  <text x="240" y="253" font-family="Arial" font-size="14" text-anchor="middle">gre-moat: 192.168.102.1</text>
  
  <rect x="170" y="280" width="140" height="35" rx="5" fill="#f8d7da" stroke="#842029" stroke-width="1" />
  <text x="240" y="303" font-family="Arial" font-size="14" text-anchor="middle">ipip-attacker: 10.200.77.103</text>
  
  <!-- Moat Node -->
  <rect x="510" y="270" width="180" height="240" rx="10" fill="#fff3cd" stroke="#664d03" stroke-width="2" />
  <text x="600" y="300" font-family="Arial" font-size="18" text-anchor="middle" font-weight="bold">Moat Node</text>
  <text x="600" y="325" font-family="Arial" font-size="16" text-anchor="middle">Physical IP: 10.0.0.6</text>
  
  <rect x="530" y="350" width="140" height="35" rx="5" fill="#e2e3e5" stroke="#41464b" stroke-width="1" />
  <text x="600" y="373" font-family="Arial" font-size="14" text-anchor="middle">gre-benign: 192.168.100.2</text>
  
  <rect x="530" y="395" width="140" height="35" rx="5" fill="#e2e3e5" stroke="#41464b" stroke-width="1" />
  <text x="600" y="418" font-family="Arial" font-size="14" text-anchor="middle">gre-attacker: 192.168.102.2</text>
  
  <rect x="530" y="440" width="140" height="35" rx="5" fill="#e2e3e5" stroke="#41464b" stroke-width="1" />
  <text x="600" y="463" font-family="Arial" font-size="14" text-anchor="middle">gre-king: 192.168.101.1</text>
  
  <rect x="530" y="485" width="140" height="35" rx="5" fill="#d1e7dd" stroke="#0f5132" stroke-width="1" />
  <text x="600" y="508" font-family="Arial" font-size="14" text-anchor="middle">ipip-to-king</text>
  
  <!-- King Node -->
  <rect x="870" y="390" width="180" height="200" rx="10" fill="#d0d4ff" stroke="#070d59" stroke-width="2" />
  <text x="960" y="420" font-family="Arial" font-size="18" text-anchor="middle" font-weight="bold">King Node</text>
  <text x="960" y="445" font-family="Arial" font-size="16" text-anchor="middle">Physical IP: 10.0.0.5</text>
  
  <rect x="890" y="470" width="140" height="35" rx="5" fill="#e2e3e5" stroke="#41464b" stroke-width="1" />
  <text x="960" y="493" font-family="Arial" font-size="14" text-anchor="middle">gre-moat: 192.168.101.2</text>
  
  <rect x="890" y="520" width="140" height="35" rx="5" fill="#d0d4ff" stroke="#070d59" stroke-width="1" />
  <text x="960" y="543" font-family="Arial" font-size="14" text-anchor="middle">ipip-king: 10.200.77.1</text>
  
  <!-- Overlay Network (Top) -->
  <rect x="100" y="80" width="1000" height="40" rx="10" fill="#ffd8a8" stroke="#ff8000" stroke-width="2" />
  <text x="600" y="105" font-family="Arial" font-size="16" text-anchor="middle" font-weight="bold">Overlay Network (10.0.0.0/8)</text>

  <!-- GRE Tunnel Connections -->
  <!-- Benign to Moat GRE -->
  <path d="M 330 485 L 530 370" stroke="#084298" stroke-width="3" stroke-dasharray="5,3" fill="none" />
  <text x="420" y="415" font-family="Arial" font-size="14" text-anchor="middle" fill="#084298">GRE Tunnel (Key: 77)</text>
  
  <!-- Attacker to Moat GRE -->
  <path d="M 330 245 L 530 410" stroke="#842029" stroke-width="3" stroke-dasharray="5,3" fill="none" />
  <text x="420" y="315" font-family="Arial" font-size="14" text-anchor="middle" fill="#842029">GRE Tunnel (Key: 79)</text>
  
  <!-- Moat to King GRE -->
  <path d="M 690 455 L 890 485" stroke="#664d03" stroke-width="3" stroke-dasharray="5,3" fill="none" />
  <text x="790" y="455" font-family="Arial" font-size="14" text-anchor="middle" fill="#664d03">GRE Tunnel (Key: 88)</text>
  
  <!-- IPIP Logical Connections -->
  <!-- Benign to King IPIP (through GRE) -->
  <path d="M 240 520 C 240 140 960 140 960 520" stroke="#0f5132" stroke-width="2" stroke-dasharray="10,4" fill="none" />
  <text x="600" y="160" font-family="Arial" font-size="14" text-anchor="middle" fill="#0f5132">IPIP Overlay (10.200.77.102 → 10.200.77.1)</text>
  
  <!-- Attacker to King IPIP (through GRE) -->
  <path d="M 240 280 C 260 180 940 180 960 520" stroke="#842029" stroke-width="2" stroke-dasharray="10,4" fill="none" />
  <text x="600" y="200" font-family="Arial" font-size="14" text-anchor="middle" fill="#842029">IPIP Overlay (10.200.77.103 → 10.200.77.1)</text>
  
  <!-- Physical Connections to Network -->
  <line x1="240" y1="590" x2="240" y2="700" stroke="#333" stroke-width="1.5" />
  <line x1="240" y1="350" x2="240" y2="700" stroke="#333" stroke-width="1.5" />
  <line x1="600" y1="510" x2="600" y2="700" stroke="#333" stroke-width="1.5" />
  <line x1="960" y1="590" x2="960" y2="700" stroke="#333" stroke-width="1.5" />
  
  <!-- Legend -->
  <rect x="900" y="600" width="240" height="140" rx="5" fill="rgba(255,255,255,0.9)" stroke="#333" stroke-width="1" />
  <text x="1020" y="625" font-family="Arial" font-size="16" text-anchor="middle" font-weight="bold">Legend</text>
  
  <line x1="920" y1="645" x2="950" y2="645" stroke="#333" stroke-width="1.5" />
  <text x="1030" y="650" font-family="Arial" font-size="14" text-anchor="middle">Physical Connection</text>
  
  <line x1="920" y1="675" x2="950" y2="675" stroke="#333" stroke-width="3" stroke-dasharray="5,3" />
  <text x="1030" y="680" font-family="Arial" font-size="14" text-anchor="middle">GRE Tunnel</text>
  
  <line x1="920" y1="705" x2="950" y2="705" stroke="#333" stroke-width="2" stroke-dasharray="10,4" />
  <text x="1030" y="710" font-family="Arial" font-size="14" text-anchor="middle">IPIP Tunnel</text>
  
  <rect x="920" y="725" width="18" height="18" fill="#d1e7dd" stroke="#0f5132" stroke-width="1" />
  <text x="1030" y="738" font-family="Arial" font-size="14" text-anchor="middle">Overlay IPs (10.200.77.x)</text>
</svg>
