<svg xmlns="http://www.w3.org/2000/svg" viewBox="0 0 800 500">
  <!-- Background with subtle gradient -->
  <defs>
    <linearGradient id="bgGradient" x1="0%" y1="0%" x2="100%" y2="100%">
      <stop offset="0%" style="stop-color:#f9f9f9;stop-opacity:1" />
      <stop offset="100%" style="stop-color:#f0f0f0;stop-opacity:1" />
    </linearGradient>
    
    <!-- Shadow filter -->
    <filter id="shadow" x="-20%" y="-20%" width="140%" height="140%">
      <feGaussianBlur in="SourceAlpha" stdDeviation="3" />
      <feOffset dx="2" dy="2" result="offsetblur" />
      <feComponentTransfer>
        <feFuncA type="linear" slope="0.2" />
      </feComponentTransfer>
      <feMerge>
        <feMergeNode />
        <feMergeNode in="SourceGraphic" />
      </feMerge>
    </filter>
    
    <!-- Gradient for King -->
    <linearGradient id="kingGradient" x1="0%" y1="0%" x2="100%" y2="100%">
      <stop offset="0%" style="stop-color:#2851a3;stop-opacity:1" />
      <stop offset="100%" style="stop-color:#1a347a;stop-opacity:1" />
    </linearGradient>
    
    <!-- Gradient for Moat -->
    <linearGradient id="moatGradient" x1="0%" y1="0%" x2="100%" y2="100%">
      <stop offset="0%" style="stop-color:#1e7b8a;stop-opacity:1" />
      <stop offset="100%" style="stop-color:#155966;stop-opacity:1" />
    </linearGradient>
    
    <!-- Gradient for Attacker -->
    <linearGradient id="attackerGradient" x1="0%" y1="0%" x2="100%" y2="100%">
      <stop offset="0%" style="stop-color:#c0392b;stop-opacity:1" />
      <stop offset="100%" style="stop-color:#922b21;stop-opacity:1" />
    </linearGradient>
    
    <!-- Gradient for Benign -->
    <linearGradient id="benignGradient" x1="0%" y1="0%" x2="100%" y2="100%">
      <stop offset="0%" style="stop-color:#27ae60;stop-opacity:1" />
      <stop offset="100%" style="stop-color:#1e8449;stop-opacity:1" />
    </linearGradient>
    
    <!-- Arrow markers -->
    <marker id="arrowMalicious" markerWidth="10" markerHeight="10" refX="9" refY="5" orient="auto">
      <path d="M0,0 L0,10 L10,5 Z" fill="#c0392b" />
    </marker>
    
    <marker id="arrowBenign" markerWidth="10" markerHeight="10" refX="9" refY="5" orient="auto">
      <path d="M0,0 L0,10 L10,5 Z" fill="#27ae60" />
    </marker>
    
    <marker id="arrowFiltered" markerWidth="10" markerHeight="10" refX="9" refY="5" orient="auto">
      <path d="M0,0 L0,10 L10,5 Z" fill="#2851a3" />
    </marker>
  </defs>
  
  <!-- Main background -->
  <rect width="800" height="500" fill="url(#bgGradient)"/>
  
  <!-- Subtle grid pattern -->
  <path d="M0,50 L800,50 M0,100 L800,100 M0,150 L800,150 M0,200 L800,200 M0,250 L800,250 M0,300 L800,300 M0,350 L800,350 M0,400 L800,400 M0,450 L800,450" stroke="#e0e0e0" stroke-width="0.5"/>
  <path d="M50,0 L50,500 M100,0 L100,500 M150,0 L150,500 M200,0 L200,500 M250,0 L250,500 M300,0 L300,500 M350,0 L350,500 M400,0 L400,500 M450,0 L450,500 M500,0 L500,500 M550,0 L550,500 M600,0 L600,500 M650,0 L650,500 M700,0 L700,500 M750,0 L750,500" stroke="#e0e0e0" stroke-width="0.5"/>
  
  <!-- Title with better typography -->
  <text x="400" y="40" font-family="Helvetica, Arial, sans-serif" font-size="24" font-weight="500" text-anchor="middle" fill="#333">Tensorprox DDoS Mitigation System Architecture</text>
  
  <!-- Subtitle -->
  <text x="400" y="65" font-family="Helvetica, Arial, sans-serif" font-size="14" font-style="italic" text-anchor="middle" fill="#666">Advanced Protection for Critical Server Infrastructure</text>
  
  <!-- King (Target Server) - with more sophisticated design -->
  <g filter="url(#shadow)">
    <rect x="620" y="200" width="120" height="100" rx="6" fill="url(#kingGradient)" stroke="#1a347a" stroke-width="1.5"/>
    <rect x="630" y="210" width="100" height="20" rx="3" fill="#ffffff" fill-opacity="0.1"/>
    <rect x="630" y="240" width="100" height="50" rx="3" fill="#ffffff" fill-opacity="0.05"/>
    <text x="680" y="230" font-family="Helvetica, Arial, sans-serif" font-size="18" font-weight="600" text-anchor="middle" fill="white">King</text>
    <text x="680" y="255" font-family="Helvetica, Arial, sans-serif" font-size="12" text-anchor="middle" fill="white">(Target Server)</text>
    <text x="680" y="275" font-family="Helvetica, Arial, sans-serif" font-size="11" text-anchor="middle" fill="white">Protected Resource</text>
  </g>
  
  <!-- Moat (Routing Firewall) - with hexagonal shield design -->
  <g filter="url(#shadow)">
    <path d="M420,170 L500,150 L540,250 L500,350 L420,330 L380,250 Z" fill="url(#moatGradient)" stroke="#155966" stroke-width="1.5"/>
    <text x="460" y="220" font-family="Helvetica, Arial, sans-serif" font-size="18" font-weight="600" text-anchor="middle" fill="white">Moat</text>
    <text x="460" y="245" font-family="Helvetica, Arial, sans-serif" font-size="12" text-anchor="middle" fill="white">(Routing Firewall)</text>
    <text x="460" y="265" font-family="Helvetica, Arial, sans-serif" font-size="11" text-anchor="middle" fill="white">Run by Miners</text>
    <text x="460" y="285" font-family="Helvetica, Arial, sans-serif" font-size="11" text-anchor="middle" fill="white">Using AF_XDP</text>
    <circle cx="460" cy="310" r="20" fill="#ffffff" fill-opacity="0.1" stroke="#ffffff" stroke-opacity="0.3" stroke-width="1"/>
    <text x="460" y="313" font-family="Courier New, monospace" font-size="9" text-anchor="middle" fill="white">AF_XDP</text>
  </g>
  
  <!-- Attacker - with more detailed server design -->
  <g filter="url(#shadow)">
    <rect x="100" y="120" width="120" height="80" rx="6" fill="url(#attackerGradient)" stroke="#922b21" stroke-width="1.5"/>
    <rect x="110" y="130" width="100" height="15" rx="2" fill="#ffffff" fill-opacity="0.1"/>
    <rect x="110" y="155" width="40" height="8" rx="1" fill="#ffffff" fill-opacity="0.1"/>
    <rect x="110" y="170" width="40" height="8" rx="1" fill="#ffffff" fill-opacity="0.1"/>
    <rect x="160" y="155" width="40" height="23" rx="1" fill="#ffffff" fill-opacity="0.05"/>
    <text x="160" y="145" font-family="Helvetica, Arial, sans-serif" font-size="16" font-weight="600" text-anchor="middle" fill="white">Attacker</text>
    <text x="160" y="185" font-family="Helvetica, Arial, sans-serif" font-size="11" text-anchor="middle" fill="white">(Malicious Traffic)</text>
  </g>
  
  <!-- Benign - with more detailed server design -->
  <g filter="url(#shadow)">
    <rect x="100" y="300" width="120" height="80" rx="6" fill="url(#benignGradient)" stroke="#1e8449" stroke-width="1.5"/>
    <rect x="110" y="310" width="100" height="15" rx="2" fill="#ffffff" fill-opacity="0.1"/>
    <rect x="110" y="335" width="40" height="8" rx="1" fill="#ffffff" fill-opacity="0.1"/>
    <rect x="110" y="350" width="40" height="8" rx="1" fill="#ffffff" fill-opacity="0.1"/>
    <rect x="160" y="335" width="40" height="23" rx="1" fill="#ffffff" fill-opacity="0.05"/>
    <text x="160" y="325" font-family="Helvetica, Arial, sans-serif" font-size="16" font-weight="600" text-anchor="middle" fill="white">Benign</text>
    <text x="160" y="365" font-family="Helvetica, Arial, sans-serif" font-size="11" text-anchor="middle" fill="white">(Legitimate Traffic)</text>
  </g>
  
  <!-- Malicious Traffic Arrow - more sophisticated -->
  <path d="M220,160 C280,160 330,190 380,215" fill="none" stroke="#c0392b" stroke-width="2.5" stroke-dasharray="8,4" marker-end="url(#arrowMalicious)" stroke-opacity="0.8"/>
  
  <!-- Benign Traffic Arrow - more sophisticated -->
  <path d="M220,340 C280,340 330,310 380,285" fill="none" stroke="#27ae60" stroke-width="2.5" stroke-dasharray="8,4" marker-end="url(#arrowBenign)" stroke-opacity="0.8"/>
  
  <!-- Filtered Traffic Arrow - more sophisticated -->
  <path d="M540,250 C560,250 580,250 620,250" fill="none" stroke="#2851a3" stroke-width="2.5" marker-end="url(#arrowFiltered)"/>
  
  <!-- Packets visualization for malicious traffic -->
  <g transform="translate(270, 165)">
    <rect x="0" y="0" width="12" height="8" rx="1" fill="#c0392b" stroke="#ffffff" stroke-width="0.5" opacity="0.9"/>
  </g>
  <g transform="translate(290, 175)">
    <rect x="0" y="0" width="12" height="8" rx="1" fill="#c0392b" stroke="#ffffff" stroke-width="0.5" opacity="0.9"/>
  </g>
  <g transform="translate(310, 185)">
    <rect x="0" y="0" width="12" height="8" rx="1" fill="#c0392b" stroke="#ffffff" stroke-width="0.5" opacity="0.9"/>
  </g>
  
  <!-- Packets visualization for benign traffic -->
  <g transform="translate(270, 335)">
    <rect x="0" y="0" width="12" height="8" rx="1" fill="#27ae60" stroke="#ffffff" stroke-width="0.5" opacity="0.9"/>
  </g>
  <g transform="translate(290, 325)">
    <rect x="0" y="0" width="12" height="8" rx="1" fill="#27ae60" stroke="#ffffff" stroke-width="0.5" opacity="0.9"/>
  </g>
  <g transform="translate(310, 315)">
    <rect x="0" y="0" width="12" height="8" rx="1" fill="#27ae60" stroke="#ffffff" stroke-width="0.5" opacity="0.9"/>
  </g>
  
  <!-- Blocked Traffic Visualization -->
  <g transform="translate(440, 210)">
    <circle cx="10" cy="10" r="15" fill="#c0392b" fill-opacity="0.2" stroke="#c0392b" stroke-width="1"/>
    <line x1="3" y1="3" x2="17" y2="17" stroke="#c0392b" stroke-width="2"/>
    <line x1="3" y1="17" x2="17" y2="3" stroke="#c0392b" stroke-width="2"/>
  </g>
  
  <!-- Text labels for traffic flow -->
  <g transform="translate(290, 140)">
    <text font-family="Helvetica, Arial, sans-serif" font-size="10" fill="#c0392b" font-style="italic">DDoS Attack Traffic</text>
  </g>
  <g transform="translate(290, 380)">
    <text font-family="Helvetica, Arial, sans-serif" font-size="10" fill="#27ae60" font-style="italic">Legitimate User Traffic</text>
  </g>
  <g transform="translate(570, 230)">
    <text font-family="Helvetica, Arial, sans-serif" font-size="10" fill="#2851a3" font-style="italic">Filtered Traffic</text>
  </g>
  
  <!-- Advanced Legend with separating lines -->
  <rect x="200" y="410" width="400" height="75" rx="4" fill="white" fill-opacity="0.8" stroke="#d0d0d0" stroke-width="1"/>
  
  <!-- Legend Title -->
  <text x="400" y="430" font-family="Helvetica, Arial, sans-serif" font-size="14" font-weight="500" text-anchor="middle" fill="#444">System Components and Traffic Flow</text>
  
  <!-- Legend separating line -->
  <line x1="220" y1="440" x2="580" y2="440" stroke="#d0d0d0" stroke-width="1"/>
  
  <!-- Legend Items -->
  <circle cx="230" cy="455" r="5" fill="url(#attackerGradient)"/>
  <text x="245" y="458" font-family="Helvetica, Arial, sans-serif" font-size="11" fill="#444">Malicious Traffic</text>
  
  <circle cx="350" cy="455" r="5" fill="url(#benignGradient)"/>
  <text x="365" y="458" font-family="Helvetica, Arial, sans-serif" font-size="11" fill="#444">Legitimate Traffic</text>
  
  <circle cx="470" cy="455" r="5" fill="url(#moatGradient)"/>
  <text x="485" y="458" font-family="Helvetica, Arial, sans-serif" font-size="11" fill="#444">Packet Processing (AF_XDP)</text>
  
  <line x1="220" y1="470" x2="235" y2="470" stroke="#c0392b" stroke-dasharray="3,2" stroke-width="2"/>
  <text x="245" y="473" font-family="Helvetica, Arial, sans-serif" font-size="11" fill="#444">Attack Vector</text>
  
  <line x1="350" y1="470" x2="365" y2="470" stroke="#2851a3" stroke-width="2"/>
  <text x="375" y="473" font-family="Helvetica, Arial, sans-serif" font-size="11" fill="#444">Protected Connection</text>
  
  <circle cx="465" cy="470" r="4" fill="#c0392b" fill-opacity="0.2" stroke="#c0392b" stroke-width="1"/>
  <line x1="461" y1="466" x2="469" y2="474" stroke="#c0392b" stroke-width="1.5"/>
  <line x1="461" y1="474" x2="469" y2="466" stroke="#c0392b" stroke-width="1.5"/>
  <text x="485" y="473" font-family="Helvetica, Arial, sans-serif" font-size="11" fill="#444">Blocked Attack</text>
</svg>
